<?xml version="1.0" encoding="UTF-8" standalone="no"?>
<!-- Created with Inkscape (http://www.inkscape.org/) -->

<svg
   xmlns:dc="http://purl.org/dc/elements/1.1/"
   xmlns:cc="http://creativecommons.org/ns#"
   xmlns:rdf="http://www.w3.org/1999/02/22-rdf-syntax-ns#"
   xmlns:svg="http://www.w3.org/2000/svg"
   xmlns="http://www.w3.org/2000/svg"
   xmlns:sodipodi="http://sodipodi.sourceforge.net/DTD/sodipodi-0.dtd"
   xmlns:inkscape="http://www.inkscape.org/namespaces/inkscape"
   width="210mm"
   height="297mm"
   viewBox="0 0 744.09448819 1052.3622047"
   id="svg2"
   version="1.1"
   inkscape:version="0.91 r13725"
   sodipodi:docname="drawing.svg"
   inkscape:export-filename="C:\Users\DAWID\Desktop\drawing.png"
   inkscape:export-xdpi="90"
   inkscape:export-ydpi="90">
  <defs
     id="defs4" />
  <sodipodi:namedview
     id="base"
     pagecolor="#ffffff"
     bordercolor="#666666"
     borderopacity="1.0"
     inkscape:pageopacity="0.0"
     inkscape:pageshadow="2"
     inkscape:zoom="1.1460517"
     inkscape:cx="615.9755"
     inkscape:cy="729.42134"
     inkscape:document-units="px"
     inkscape:current-layer="layer1"
     showgrid="false"
     inkscape:window-width="1366"
     inkscape:window-height="715"
     inkscape:window-x="-8"
     inkscape:window-y="-8"
     inkscape:window-maximized="1" />
  <metadata
     id="metadata7">
    <rdf:RDF>
      <cc:Work
         rdf:about="">
        <dc:format>image/svg+xml</dc:format>
        <dc:type
           rdf:resource="http://purl.org/dc/dcmitype/StillImage" />
        <dc:title></dc:title>
      </cc:Work>
    </rdf:RDF>
  </metadata>
  <g
     inkscape:label="Layer 1"
     inkscape:groupmode="layer"
     id="layer1">
    <path
       style="fill:none;fill-rule:evenodd;stroke:#000000;stroke-width:1px;stroke-linecap:butt;stroke-linejoin:miter;stroke-opacity:1"
       d="m 506.08643,395.25797 c 8.17455,10.10979 15.18196,12.53756 25.75889,35.86042 -40.23775,3.25178 -82.4958,4.9446 -122.73354,-1.01015 -7.21085,-6.70887 -13.93859,-25.68229 -19.95051,-38.3858 37.2247,0.0273 71.29404,-0.20759 116.92516,3.53553 z"
       id="path3366"
       inkscape:connector-curvature="0"
       sodipodi:nodetypes="ccccc" />
    <path
       style="fill:none;fill-rule:evenodd;stroke:#000000;stroke-width:1px;stroke-linecap:butt;stroke-linejoin:miter;stroke-opacity:1"
       d="m 519.72348,413.9458 c -34.10641,-0.73127 -67.67844,-1.75941 -89.90357,-9.09138 17.34889,10.38477 16.21707,7.36988 4.04061,9.59645 -22.41968,8.10907 -21.26051,-4.3406 -29.7995,-11.11168 -7.75923,-9.35486 -5.1018,20.56019 17.67767,20.70813 44.59324,-7.47229 125.06229,5.54195 97.98479,-10.10152 z"
       id="path3368"
       inkscape:connector-curvature="0"
       sodipodi:nodetypes="cccccc" />
    <path
       style="fill:none;fill-rule:evenodd;stroke:#000000;stroke-width:1px;stroke-linecap:butt;stroke-linejoin:miter;stroke-opacity:1"
       d="m 416.18285,407.3798 5.55584,-6.06091 -14.64721,-2.02031 z"
       id="path3370"
       inkscape:connector-curvature="0" />
    <path
       style="fill:none;fill-rule:evenodd;stroke:#000000;stroke-width:1px;stroke-linecap:butt;stroke-linejoin:miter;stroke-opacity:1"
       d="m 450.02296,396.7732 c 12.25874,-0.12128 12.32053,3.12083 14.64721,10.10153 -29.5948,0.11938 -30.7009,-10.35685 -14.64721,-10.10153 z"
       id="path3372"
       inkscape:connector-curvature="0"
       sodipodi:nodetypes="ccc" />
    <path
       style="fill:none;fill-rule:evenodd;stroke:#000000;stroke-width:1px;stroke-linecap:butt;stroke-linejoin:miter;stroke-opacity:1"
       d="m 471.23616,401.82397 c -2.72898,-4.35463 20.72016,-5.48687 22.22336,0.50507 2.23616,9.17421 -19.72556,4.23395 -22.22336,-0.50507 z"
       id="path3374"
       inkscape:connector-curvature="0"
       sodipodi:nodetypes="ccc" />
    <path
       style="fill:none;fill-rule:evenodd;stroke:#000000;stroke-width:1px;stroke-linecap:butt;stroke-linejoin:miter;stroke-opacity:1"
       d="m 533.86562,469.50419 c 28.73441,30.6933 -0.0912,39.00159 -31.31473,41.41624 -33.76648,2.91465 -64.39026,3.13554 -102.02541,-0.50507 7.29645,-37.80559 14.61167,-48.83588 133.34014,-40.91117 z"
       id="path3376"
       inkscape:connector-curvature="0"
       sodipodi:nodetypes="cccc" />
    <path
       style="fill:none;fill-rule:evenodd;stroke:#000000;stroke-width:1px;stroke-linecap:butt;stroke-linejoin:miter;stroke-opacity:1"
       d="m 546.9976,463.94835 -119.70307,-4.54569 c -12.37789,8.66178 -26.24427,20.52133 -50.00255,37.88072 C 375.60085,369.17927 239.91123,323.03206 270.21581,462.93819 l -22.22336,-7.57614 c 1.46167,-48.88515 -10.42663,-114.36734 6.19103,-121.85181 3.11985,-1.40516 1.24067,-6.68843 1.89019,-9.9731 l 13.59679,-2.52538 c 2.45821,41.90772 41.00667,7.90235 119.74335,70.2056 l 116.67262,3.53554 c 20.12362,19.98072 28.81207,38.49732 40.91117,69.19545 z"
       id="path3380"
       inkscape:connector-curvature="0"
       sodipodi:nodetypes="cccccsccccc" />
    <path
       style="fill:none;fill-rule:evenodd;stroke:#000000;stroke-width:1px;stroke-linecap:butt;stroke-linejoin:miter;stroke-opacity:1"
       d="m 269.71073,321.51684 c 89.82633,-2.07477 135.77311,-6.34478 202.03051,-18.18275 73.86817,21.23387 161.26046,30.14983 183.34269,69.19545 -31.12776,1.3261 -112.00225,20.63816 -148.49243,22.22336"
       id="path3386"
       inkscape:connector-curvature="0"
       sodipodi:nodetypes="cccc" />
    <path
       style="fill:none;fill-rule:evenodd;stroke:#000000;stroke-width:1px;stroke-linecap:butt;stroke-linejoin:miter;stroke-opacity:1"
       d="m 269.80109,321.18758 c -7.66746,-20.70528 -19.27633,-39.5845 -36.18067,-57.60517 39.1691,-10.05726 96.22741,-13.22045 143.7008,-3.81124 22.12265,4.38471 41.69795,20.73433 79.26773,46.0883"
       id="path3388"
       inkscape:connector-curvature="0"
       sodipodi:nodetypes="ccsc" />
    <path
       style="fill:none;fill-rule:evenodd;stroke:#000000;stroke-width:1px;stroke-linecap:butt;stroke-linejoin:miter;stroke-opacity:1"
       d="m 643.66375,375.33616 c -45.41849,2.62875 -65.2079,7.78756 -104.24229,17.39643 -18.36873,2.36104 4.71512,34.29265 16.58822,67.13865 9.92119,27.44616 12.36295,28.6386 20.28234,28.82585 31.19021,-2.58117 54.15811,-13.63882 73.45421,-26.90664 3.94293,-11.87052 23.18031,-73.30989 -6.08248,-86.45429 z"
       id="path3394"
       inkscape:connector-curvature="0"
       sodipodi:nodetypes="ccsccc" />
    <path
       style="fill:none;fill-rule:evenodd;stroke:#000000;stroke-width:1px;stroke-linecap:butt;stroke-linejoin:miter;stroke-opacity:1"
       d="m 288.96103,321.11005 c 61.19666,11.30484 129.61843,28.74369 220.15586,73.3903"
       id="path3396"
       inkscape:connector-curvature="0"
       sodipodi:nodetypes="cc" />
    <path
       style="fill:none;fill-rule:evenodd;stroke:#000000;stroke-width:1px;stroke-linecap:butt;stroke-linejoin:miter;stroke-opacity:1"
       d="m 538.41131,320.00161 c 38.56038,14.97771 77.90964,31.18683 109.85409,52.78047"
       id="path3398"
       inkscape:connector-curvature="0"
       sodipodi:nodetypes="cc" />
    <path
       style="fill:none;fill-rule:evenodd;stroke:#000000;stroke-width:1px;stroke-linecap:butt;stroke-linejoin:miter;stroke-opacity:1"
       d="m 462.39733,434.14884 c -10.25824,3.22047 -27.82887,5.80425 -52.78047,1.01016 C 388.18111,423.06115 385.57005,401.64293 374.24087,390.95331 349.42738,367.5406 300.55452,357.63846 246.9823,343.74019"
       id="path3400"
       inkscape:connector-curvature="0"
       sodipodi:nodetypes="ccsc" />
    <path
       style="fill:none;fill-rule:evenodd;stroke:#000000;stroke-width:1px;stroke-linecap:butt;stroke-linejoin:miter;stroke-opacity:1"
       d="m 670.23622,474.55494 c -0.6966,-4.28555 -20.76392,-1.75525 -20.76392,-1.75525 -17.10669,9.34477 -56.30531,22.71893 -79.74626,29.02938 -7.03943,9.58049 -13.20785,20.90704 -22.91352,22.20592 -68.38771,9.15215 -147.74135,4.55998 -183.1576,-11.09424"
       id="path3402"
       inkscape:connector-curvature="0"
       sodipodi:nodetypes="cscsc" />
    <path
       style="fill:none;fill-rule:evenodd;stroke:#000000;stroke-width:1px;stroke-linecap:butt;stroke-linejoin:miter;stroke-opacity:1"
       d="m 670.74129,475.06002 c 3.74129,-17.27412 -2.99905,-20.44032 -8.33376,-24.74873 -0.57405,-9.00349 -2.67516,-20.23866 2.83605,-23.48742 10.61689,-6.25847 6.03457,-38.48148 -11.16981,-54.7994"
       id="path3404"
       inkscape:connector-curvature="0"
       sodipodi:nodetypes="ccsc" />
    <path
       style="fill:none;fill-rule:evenodd;stroke:#000000;stroke-width:1px;stroke-linecap:butt;stroke-linejoin:miter;stroke-opacity:1"
       d="m 664.1753,472.53464 c -24.51504,39.45529 -66.93082,40.67764 -106.82363,45.7094"
       id="path3406"
       inkscape:connector-curvature="0"
       sodipodi:nodetypes="cc" />
    <path
       style="fill:none;fill-rule:evenodd;stroke:#000000;stroke-width:1px;stroke-linecap:butt;stroke-linejoin:miter;stroke-opacity:1"
       d="m 190.91883,261.91784 c -37.38709,2.51839 -49.1013,11.54163 -67.68022,27.77919 l 4.04061,7.07107 c 19.64963,3.7639 32.74368,5.5127 51.0127,11.11168 l 13.13199,-44.44671 z"
       id="path3410"
       inkscape:connector-curvature="0"
       sodipodi:nodetypes="cccccc" />
    <path
       style="fill:none;fill-rule:evenodd;stroke:#000000;stroke-width:1px;stroke-linecap:butt;stroke-linejoin:miter;stroke-opacity:1"
       d="m 240.41631,331.61836 c -4.54378,-33.52377 -45.99139,-34.28662 -50.75526,-24.55778 0,0 -18.76456,25.58361 35.09789,21.02225 l 5.55584,4.54569 z"
       id="path3418"
       inkscape:connector-curvature="0"
       sodipodi:nodetypes="ccccc" />
    <path
       style="fill:none;fill-rule:evenodd;stroke:#000000;stroke-width:1px;stroke-linecap:butt;stroke-linejoin:miter;stroke-opacity:1"
       d="M 228.79955,331.11329 238.396,324.5473"
       id="path3420"
       inkscape:connector-curvature="0" />
    <path
       style="fill:none;fill-rule:evenodd;stroke:#000000;stroke-width:1px;stroke-linecap:butt;stroke-linejoin:miter;stroke-opacity:1"
       d="M 256.07367,330.10313 238.90108,324.5473"
       id="path3422"
       inkscape:connector-curvature="0" />
    <path
       style="fill:none;fill-rule:evenodd;stroke:#000000;stroke-width:1px;stroke-linecap:butt;stroke-linejoin:miter;stroke-opacity:1"
       d="m 234.86047,315.961 c 1.40244,-3.93293 2.97858,-9.27883 5.05076,-21.2132 -8.97804,-13.29496 -14.91467,-28.95546 -35.35534,-33.33504 l -12.87945,42.93149"
       id="path3424"
       inkscape:connector-curvature="0"
       sodipodi:nodetypes="cccc" />
    <path
       style="fill:none;fill-rule:evenodd;stroke:#000000;stroke-width:1px;stroke-linecap:butt;stroke-linejoin:miter;stroke-opacity:1"
       d="m 199.81646,257.02289 -18.76006,55.18948 c -48.4138,8.97533 -11.51528,72.97501 -21.59588,107.97942"
       id="path3426"
       inkscape:connector-curvature="0"
       sodipodi:nodetypes="ccc" />
    <path
       style="fill:none;fill-rule:evenodd;stroke:#000000;stroke-width:1px;stroke-linecap:butt;stroke-linejoin:miter;stroke-opacity:1"
       d="m 179.9657,312.43051 c -17.77955,-5.17098 -31.03499,-7.89504 -53.18135,-11.97764 -3.63777,-0.67061 -6.05418,-6.52165 -7.46164,-11.36337 17.96115,-14.14499 31.06358,-30.19875 80.27561,-32.06661"
       id="path3428"
       inkscape:connector-curvature="0"
       sodipodi:nodetypes="cscc" />
    <path
       style="fill:none;fill-rule:evenodd;stroke:#000000;stroke-width:1px;stroke-linecap:butt;stroke-linejoin:miter;stroke-opacity:1"
       d="m 199.43084,257.02289 c 35.7118,3.49675 47.04595,37.09059 56.47413,66.71348"
       id="path3430"
       inkscape:connector-curvature="0"
       sodipodi:nodetypes="cc" />
    <path
       style="fill:none;fill-rule:evenodd;stroke:#000000;stroke-width:1px;stroke-linecap:butt;stroke-linejoin:miter;stroke-opacity:1"
       d="m 486.01645,452.91283 c 10.45215,-2.61769 7.43409,-8.72561 -2.1814,-13.08842 l -17.8875,-0.43628 c -8.4926,2.24682 -4.62314,9.78953 6.98049,13.5247 z"
       id="path3436"
       inkscape:connector-curvature="0"
       sodipodi:nodetypes="ccccc" />
    <path
       style="fill:none;fill-rule:evenodd;stroke:#000000;stroke-width:1px;stroke-linecap:butt;stroke-linejoin:miter;stroke-opacity:1"
       d="m 666.85471,392.26984 -3.70838,5.01722 c -1.1282,-8.30339 -12.58019,-19.00575 -7.41677,-24.21356"
       id="path3438"
       inkscape:connector-curvature="0"
       sodipodi:nodetypes="ccc" />
    <path
       style="fill:none;fill-rule:evenodd;stroke:#000000;stroke-width:1px;stroke-linecap:butt;stroke-linejoin:miter;stroke-opacity:1"
       d="m 518.73749,449.85886 c 5.73835,0.7667 7.44897,5.54386 4.79909,7.85305 l -8.28933,0 c -11.53554,-3.23522 -9.13188,-7.72879 -5.23537,-8.72561 z"
       id="path3440"
       inkscape:connector-curvature="0"
       sodipodi:nodetypes="ccccc" />
    <path
       style="fill:none;fill-rule:evenodd;stroke:#000000;stroke-width:1px;stroke-linecap:butt;stroke-linejoin:miter;stroke-opacity:1"
       d="m 564.2408,463.44165 c 29.61316,-8.32865 13.66417,-2.90268 88.84711,-24.98825 0.0577,7.62882 -2.27419,14.46112 -4.62746,21.28629 -19.09317,14.37401 -42.67943,21.16378 -64.78434,24.06275 -12.24162,2.64374 -16.06878,-8.48165 -19.43531,-20.36079 z"
       id="path3442"
       inkscape:connector-curvature="0"
       sodipodi:nodetypes="ccccc" />
    <path
       style="fill:none;fill-rule:evenodd;stroke:#000000;stroke-width:1px;stroke-linecap:butt;stroke-linejoin:miter;stroke-opacity:1"
       d="m 558.37936,418.4011 8.63792,-0.61699 5.55294,8.02092 -7.40393,2.15948 z"
       id="path3444"
       inkscape:connector-curvature="0" />
    <path
       style="fill:none;fill-rule:evenodd;stroke:#000000;stroke-width:1px;stroke-linecap:butt;stroke-linejoin:miter;stroke-opacity:1"
       d="m 576.58068,415.00764 4.31896,-0.92549 -0.3085,6.47843"
       id="path3446"
       inkscape:connector-curvature="0" />
    <path
       style="fill:none;fill-rule:evenodd;stroke:#000000;stroke-width:1px;stroke-linecap:butt;stroke-linejoin:miter;stroke-opacity:1"
       d="m 578.43166,417.78411 5.24445,-0.92549"
       id="path3448"
       inkscape:connector-curvature="0" />
    <path
       style="fill:none;fill-rule:evenodd;stroke:#000000;stroke-width:1px;stroke-linecap:butt;stroke-linejoin:miter;stroke-opacity:1"
       d="m 574.1127,415.93313 c -3.0343,0.52585 -2.07605,1.93376 -0.15085,2.71544 4.19999,0.27438 2.19306,3.07874 -0.15764,2.8375"
       id="path3450"
       inkscape:connector-curvature="0"
       sodipodi:nodetypes="ccc" />
    <path
       style="fill:none;fill-rule:evenodd;stroke:#000000;stroke-width:1px;stroke-linecap:butt;stroke-linejoin:miter;stroke-opacity:1"
       d="m 569.19547,423.26541 -2.79519,-3.93881 c 4.82955,-3.43173 5.94183,-0.54743 1.795,1.36227 l 4.10066,1.17734"
       id="path3452"
       inkscape:connector-curvature="0"
       sodipodi:nodetypes="cccc" />
    <path
       style="fill:none;fill-rule:evenodd;stroke:#000000;stroke-width:1px;stroke-linecap:butt;stroke-linejoin:miter;stroke-opacity:1"
       d="m 270.27576,462.94728 c -57.03443,-20.5809 -150.03484,-44.90932 -157.93354,-85.29284 4.69112,11.925 6.24834,22.10488 5.45351,36.42942 21.80625,10.16604 41.73351,19.79522 67.25948,31.02404 28.48334,12.17113 55.8234,24.77099 88.71079,35.2906 z"
       id="path3454"
       inkscape:connector-curvature="0"
       sodipodi:nodetypes="cccccc" />
    <path
       style="fill:none;fill-rule:evenodd;stroke:#000000;stroke-width:1px;stroke-linecap:butt;stroke-linejoin:miter;stroke-opacity:1"
       d="m 112.34222,377.87258 c -9.93725,-36.69821 -25.411378,-44.11529 -29.230789,-6.5442 -9.187903,-47.16066 -15.852892,-71.97588 13.297515,-67.58815 0,0 13.310484,-9.5193 18.825644,-15.31644 58.20883,-61.18498 184.6816,-52.37213 260.34569,-34.35893 3.79894,0.9044 7.45573,1.88627 10.99751,2.7751 27.59044,6.92397 48.36215,28.93861 84.82327,46.21052"
       id="path3458"
       inkscape:connector-curvature="0"
       sodipodi:nodetypes="ccssssc" />
    <path
       style="fill:none;fill-rule:evenodd;stroke:#000000;stroke-width:1px;stroke-linecap:butt;stroke-linejoin:miter;stroke-opacity:1"
       d="M 121.54777,394.64684 C 110.43001,354.35914 90.623115,316.51599 80.517687,356.39323"
       id="path3460"
       inkscape:connector-curvature="0"
       sodipodi:nodetypes="cc" />
    <path
       style="fill:none;fill-rule:evenodd;stroke:#000000;stroke-width:1px;stroke-linecap:butt;stroke-linejoin:miter;stroke-opacity:1"
       d="M 121.85627,394.95534 C 111.05363,307.92598 91.369185,293.13193 80.286315,357.5501"
       id="path3462"
       inkscape:connector-curvature="0"
       sodipodi:nodetypes="cc" />
    <path
       style="fill:none;fill-rule:evenodd;stroke:#000000;stroke-width:1px;stroke-linecap:butt;stroke-linejoin:miter;stroke-opacity:1"
       d="m 179.54519,312.27818 6.94118,1.54248"
       id="path3464"
       inkscape:connector-curvature="0"
       sodipodi:nodetypes="cc" />
    <path
       style="fill:none;fill-rule:evenodd;stroke:#000000;stroke-width:1px;stroke-linecap:butt;stroke-linejoin:miter;stroke-opacity:1"
       d="m 363.25508,512.6469 c 5.11941,-2.84267 7.39933,-12.92636 6.63582,-25.50137 -0.0261,-0.42971 -0.0701,-0.86147 -0.0889,-1.29767 -2.21512,-51.28059 -41.68223,-119.51481 -85.94669,-98.56306 -0.53122,0.25144 -0.30286,0.19662 -0.30286,0.19662 -9.83502,6.87891 -16.20771,23.56229 -16.88332,54.4558"
       id="path3466"
       inkscape:connector-curvature="0"
       sodipodi:nodetypes="cssssc" />
    <path
       style="fill:none;fill-rule:evenodd;stroke:#000000;stroke-width:1px;stroke-linecap:butt;stroke-linejoin:miter;stroke-opacity:1"
       d="m 325.68338,392.0517 c -43.42817,-4.38261 -57.31624,29.9445 -57.58903,59.77042"
       id="path3468"
       inkscape:connector-curvature="0"
       sodipodi:nodetypes="cc" />
    <path
       style="fill:none;fill-rule:evenodd;stroke:#000000;stroke-width:1px;stroke-linecap:butt;stroke-linejoin:miter;stroke-opacity:1"
       d="m 276.81996,414.73828 c 69.57288,-70.75062 121.26895,123.28986 53.44436,127.17576 -40.62559,0.56179 -48.1737,-33.22777 -56.71646,-61.51554"
       id="path3470"
       inkscape:connector-curvature="0"
       sodipodi:nodetypes="ccc" />
    <path
       style="fill:none;fill-rule:evenodd;stroke:#000000;stroke-width:1px;stroke-linecap:butt;stroke-linejoin:miter;stroke-opacity:1"
       d="m 306.2689,408.8485 c 39.63971,5.36155 72.7699,111.27063 16.14237,125.21249 C 282.99774,534.69574 252.90932,407.6531 306.2689,408.8485 Z"
       id="path3472"
       inkscape:connector-curvature="0"
       sodipodi:nodetypes="ccc" />
    <path
       style="fill:none;fill-rule:evenodd;stroke:#000000;stroke-width:1px;stroke-linecap:butt;stroke-linejoin:miter;stroke-opacity:1"
       d="m 318.04847,474.29057 c 7.42832,-3.33993 3.29777,-16.35471 -4.79909,-11.77957 -5.86656,3.78387 -2.7241,13.279 4.79909,11.77957 z"
       id="path3474"
       inkscape:connector-curvature="0"
       sodipodi:nodetypes="ccc" />
    <path
       style="fill:none;fill-rule:evenodd;stroke:#000000;stroke-width:1px;stroke-linecap:butt;stroke-linejoin:miter;stroke-opacity:1"
       d="m 324.53872,465.29263 c -0.62716,0.64779 -0.0351,2.26699 1.04118,1.92811 1.15632,-0.79137 -0.0899,-2.7204 -1.04118,-1.92811 z"
       id="path3476"
       inkscape:connector-curvature="0"
       sodipodi:nodetypes="ccc" />
    <path
       style="fill:none;fill-rule:evenodd;stroke:#000000;stroke-width:1px;stroke-linecap:butt;stroke-linejoin:miter;stroke-opacity:1"
       d="m 309.46094,463.36452 c 0.78451,-0.70443 -0.43118,-2.35565 -1.27255,-1.85098 -0.82567,0.58636 0.30957,2.29389 1.27255,1.85098 z"
       id="path3478"
       inkscape:connector-curvature="0"
       sodipodi:nodetypes="ccc" />
    <path
       style="fill:none;fill-rule:evenodd;stroke:#000000;stroke-width:1px;stroke-linecap:butt;stroke-linejoin:miter;stroke-opacity:1"
       d="m 308.0727,476.35996 c -0.89603,1.18301 0.0415,2.96569 1.7353,2.04379 1.22983,-1.13986 -0.55425,-2.89064 -1.7353,-2.04379 z"
       id="path3480"
       inkscape:connector-curvature="0"
       sodipodi:nodetypes="ccc" />
    <path
       style="fill:none;fill-rule:evenodd;stroke:#000000;stroke-width:1px;stroke-linecap:butt;stroke-linejoin:miter;stroke-opacity:1"
       d="m 319.6799,479.09786 c -0.85007,0.65695 -0.0327,2.37007 1.15686,1.46537 1.18954,-0.9047 0.14241,-2.46947 -1.15686,-1.46537 z"
       id="path3482"
       inkscape:connector-curvature="0"
       sodipodi:nodetypes="szs" />
    <path
       style="fill:none;fill-rule:evenodd;stroke:#000000;stroke-width:1px;stroke-linecap:butt;stroke-linejoin:miter;stroke-opacity:1"
       d="m 291.06681,506.78546 c 4.93595,-8.26686 10.41725,-15.17667 14.80785,-25.29674 -4.49553,-5.18633 -6.87095,-10.56539 -8.17517,-16.04184 -7.51413,0.63697 -13.08376,4.09725 -18.20131,7.09543"
       id="path3486"
       inkscape:connector-curvature="0"
       sodipodi:nodetypes="cccc" />
    <path
       style="fill:none;fill-rule:evenodd;stroke:#000000;stroke-width:1px;stroke-linecap:butt;stroke-linejoin:miter;stroke-opacity:1"
       d="m 298.41585,409.9392 c 5.19002,13.23837 5.57099,26.60863 6.10793,40.1378 -2.17757,1.56717 -3.89287,3.59661 -4.90816,6.32607 -7.00172,-2.15406 -14.45302,-2.95937 -22.03216,-3.38117"
       id="path3488"
       inkscape:connector-curvature="0"
       sodipodi:nodetypes="cccc" />
    <path
       style="fill:none;fill-rule:evenodd;stroke:#000000;stroke-width:1px;stroke-linecap:butt;stroke-linejoin:miter;stroke-opacity:1"
       d="m 338.22644,525.88074 c -4.69362,-13.55925 -9.29598,-27.16413 -16.25145,-39.59246 -2.72574,1.5906 -5.19573,0.87942 -7.6349,-0.10907 -2.34747,12.63445 -6.93977,25.71786 -10.57981,38.61082"
       id="path3490"
       inkscape:connector-curvature="0"
       sodipodi:nodetypes="cccc" />
    <path
       style="fill:none;fill-rule:evenodd;stroke:#000000;stroke-width:1px;stroke-linecap:butt;stroke-linejoin:miter;stroke-opacity:1"
       d="m 352.07835,497.19529 c -8.40827,-4.57812 -14.97065,-9.68364 -21.37775,-14.83353 2.27001,-7.00661 1.30523,-13.15932 -1.30884,-19.63262 5.39396,-3.29372 11.43958,-4.95829 17.99657,-5.34444"
       id="path3492"
       inkscape:connector-curvature="0"
       sodipodi:nodetypes="cccc" />
    <path
       style="fill:none;fill-rule:evenodd;stroke:#000000;stroke-width:1px;stroke-linecap:butt;stroke-linejoin:miter;stroke-opacity:1"
       d="m 338.98993,437.42487 c -6.80126,3.63311 -12.72326,8.14549 -17.56029,13.74283 -1.68809,-2.59154 -3.88167,-4.3406 -7.30769,-4.03559 -0.89037,-11.23422 -0.221,-22.25031 3.59931,-33.37546"
       id="path3494"
       inkscape:connector-curvature="0"
       sodipodi:nodetypes="cccc" />
    <path
       style="fill:none;fill-rule:evenodd;stroke:#000000;stroke-width:1px;stroke-linecap:butt;stroke-linejoin:miter;stroke-opacity:1"
       d="m 402.2506,523.15398 c -1.37726,6.80085 -3.0763,13.44081 -10.90701,17.01494 l -64.44173,1.69219"
       id="path3496"
       inkscape:connector-curvature="0"
       sodipodi:nodetypes="ccc" />
    <path
       style="fill:none;fill-rule:evenodd;stroke:#000000;stroke-width:1px;stroke-linecap:butt;stroke-linejoin:miter;stroke-opacity:1"
       d="m 459.66036,467.14361 c -6.03839,16.22614 -8.4112,34.36674 -17.73857,45.81179"
       id="path3498"
       inkscape:connector-curvature="0"
       sodipodi:nodetypes="cc" />
    <path
       style="fill:none;fill-rule:evenodd;stroke:#000000;stroke-width:1px;stroke-linecap:butt;stroke-linejoin:miter;stroke-opacity:1"
       d="m 466.60154,479.02074 c -10.37743,-0.38684 -13.11717,23.11307 -3.23922,22.52027 10.05945,0.33762 15.32131,-22.69236 3.23922,-22.52027 z"
       id="path3500"
       inkscape:connector-curvature="0"
       sodipodi:nodetypes="ccc" />
    <path
       style="fill:none;fill-rule:evenodd;stroke:#000000;stroke-width:1px;stroke-linecap:butt;stroke-linejoin:miter;stroke-opacity:1"
       d="m 461.81984,498.91879 c -8.11531,-0.74694 -4.6541,-16.99716 2.46797,-19.4353 9.31173,0.29145 3.59357,17.90991 -2.46797,19.4353 z"
       id="path3502"
       inkscape:connector-curvature="0"
       sodipodi:nodetypes="ccc" />
    <path
       style="fill:none;fill-rule:evenodd;stroke:#000000;stroke-width:1px;stroke-linecap:butt;stroke-linejoin:miter;stroke-opacity:1"
       d="m 573.92697,500.4674 c 5.34533,1.12673 8.9372,2.11768 14.17912,4.79908 1.34294,-2.22002 2.92451,-4.9649 1.30884,-9.38003"
       id="path3504"
       inkscape:connector-curvature="0"
       sodipodi:nodetypes="ccc" />
    <path
       style="fill:none;fill-rule:evenodd;stroke:#000000;stroke-width:1px;stroke-linecap:butt;stroke-linejoin:miter;stroke-opacity:1"
       d="m 592.90517,494.35947 c -0.77986,3.31392 1.13947,6.67338 3.92653,7.85305 12.65213,-2.01932 24.43171,-5.42782 36.64756,-12.65213 0.95944,-2.21068 -0.44385,-5.60272 -1.74512,-8.94375"
       id="path3506"
       inkscape:connector-curvature="0"
       sodipodi:nodetypes="cccc" />
    <path
       style="fill:none;fill-rule:evenodd;stroke:#000000;stroke-width:1px;stroke-linecap:butt;stroke-linejoin:miter;stroke-opacity:1"
       d="m 636.09694,478.87151 c 1.48864,1.26169 2.21905,3.02886 1.96326,5.45351 4.93636,-3.00785 9.42278,-6.44615 11.56143,-11.34329"
       id="path3508"
       inkscape:connector-curvature="0"
       sodipodi:nodetypes="ccc" />
    <path
       style="fill:none;fill-rule:evenodd;stroke:#000000;stroke-width:1px;stroke-linecap:butt;stroke-linejoin:miter;stroke-opacity:1"
       d="m 662.92819,429.24461 c -5.20087,-5.4754 -5.49896,20.69436 -7.85305,33.5936 2.29047,-0.35132 4.58095,-6.30301 6.87142,-12.65214"
       id="path3510"
       inkscape:connector-curvature="0"
       sodipodi:nodetypes="ccc" />
    <path
       style="fill:none;fill-rule:evenodd;stroke:#000000;stroke-width:1px;stroke-linecap:butt;stroke-linejoin:miter;stroke-opacity:1"
       d="m 612.31965,394.88752 c -3.61857,-10.52469 -11.39736,-7.06729 -11.59244,-2.44605"
       id="path3516"
       inkscape:connector-curvature="0"
       sodipodi:nodetypes="cc" />
    <path
       style="fill:none;fill-rule:evenodd;stroke:#000000;stroke-width:1px;stroke-linecap:butt;stroke-linejoin:miter;stroke-opacity:1"
       d="m 612.21207,394.56972 c 3.2033,10.90263 -3.53133,11.21283 -7.48105,7.86667"
       id="path3526"
       inkscape:connector-curvature="0"
       sodipodi:nodetypes="cc" />
    <path
       style="fill:none;fill-rule:evenodd;stroke:#000000;stroke-width:1px;stroke-linecap:butt;stroke-linejoin:miter;stroke-opacity:1"
       d="m 612.28919,394.64685 c 0.80248,-6.8924 5.64869,-10.90621 9.79478,-1.61962"
       id="path3528"
       inkscape:connector-curvature="0"
       sodipodi:nodetypes="cc" />
    <path
       style="fill:none;fill-rule:evenodd;stroke:#000000;stroke-width:1px;stroke-linecap:butt;stroke-linejoin:miter;stroke-opacity:1"
       d="m 597.48134,393.64422 c -0.54604,3.55962 1.08298,7.80012 4.01046,10.95165"
       id="path3530"
       inkscape:connector-curvature="0"
       sodipodi:nodetypes="cc" />
    <path
       style="fill:none;fill-rule:evenodd;stroke:#000000;stroke-width:1px;stroke-linecap:butt;stroke-linejoin:miter;stroke-opacity:1"
       d="m 597.94409,389.55664 c 1.99901,-3.28776 6.01756,-6.64877 12.80262,-2.77647"
       id="path3532"
       inkscape:connector-curvature="0"
       sodipodi:nodetypes="cc" />
    <path
       style="fill:none;fill-rule:evenodd;stroke:#000000;stroke-width:1px;stroke-linecap:butt;stroke-linejoin:miter;stroke-opacity:1"
       d="m 604.26828,406.21548 c 4.95788,1.99063 9.77204,2.35474 12.72549,-3.1621 5.28482,1.92917 8.39156,1.02683 9.56341,-2.39085"
       id="path3534"
       inkscape:connector-curvature="0"
       sodipodi:nodetypes="ccc" />
    <path
       style="fill:none;fill-rule:evenodd;stroke:#000000;stroke-width:1px;stroke-linecap:butt;stroke-linejoin:miter;stroke-opacity:1"
       d="m 622.00685,392.79586 c 2.95566,9.4554 -6.04177,9.57629 -9.02354,5.16733"
       id="path3536"
       inkscape:connector-curvature="0"
       sodipodi:nodetypes="cc" />
    <path
       style="fill:none;fill-rule:evenodd;stroke:#000000;stroke-width:1px;stroke-linecap:butt;stroke-linejoin:miter;stroke-opacity:1"
       d="m 610.43821,386.62592 c 2.76176,-3.59042 8.12103,-5.22786 12.03138,0.38563"
       id="path3538"
       inkscape:connector-curvature="0"
       sodipodi:nodetypes="cc" />
    <path
       style="fill:none;fill-rule:evenodd;stroke:#000000;stroke-width:1px;stroke-linecap:butt;stroke-linejoin:miter;stroke-opacity:1"
       d="m 628.71665,385.54619 c -7.18168,-0.0805 -3.26633,14.61308 2.08236,14.19085 5.49632,-1.12476 2.33444,-14.78869 -2.08236,-14.19085 z"
       id="path3540"
       inkscape:connector-curvature="0"
       sodipodi:nodetypes="ccc" />
    <path
       style="fill:none;fill-rule:evenodd;stroke:#000000;stroke-width:1px;stroke-linecap:butt;stroke-linejoin:miter;stroke-opacity:1"
       d="m 622.00685,386.78017 c 3.16801,-7.73674 11.8923,-6.76501 14.49935,4.7817 0.47226,7.04836 -1.93637,13.68718 -10.02615,9.25491"
       id="path3542"
       inkscape:connector-curvature="0"
       sodipodi:nodetypes="ccc" />
    <path
       style="fill:none;fill-rule:evenodd;stroke:#000000;stroke-width:1px;stroke-linecap:butt;stroke-linejoin:miter;stroke-opacity:1"
       d="m 605.19377,402.82201 c -0.23957,-3.8936 -0.79328,-7.71329 -4.47321,-10.79739"
       id="path3544"
       inkscape:connector-curvature="0"
       sodipodi:nodetypes="cc" />
    <path
       style="fill:none;fill-rule:evenodd;stroke:#000000;stroke-width:1px;stroke-linecap:butt;stroke-linejoin:miter;stroke-opacity:1"
       d="m 597.24997,393.10436 c 4.68416,3.60032 6.12316,9.79001 4.62746,12.03138"
       id="path3546"
       inkscape:connector-curvature="0"
       sodipodi:nodetypes="cc" />
    <path
       style="fill:none;fill-rule:evenodd;stroke:#000000;stroke-width:1px;stroke-linecap:butt;stroke-linejoin:miter;stroke-opacity:1"
       d="m 598.02121,389.24815 c -8.46702,-1.67426 -10.57307,6.15939 -9.79477,13.80523 1.92179,10.46755 10.56417,11.89728 16.50458,3.31635"
       id="path3548"
       inkscape:connector-curvature="0"
       sodipodi:nodetypes="ccc" />
    <path
       style="fill:none;fill-rule:evenodd;stroke:#000000;stroke-width:1px;stroke-linecap:butt;stroke-linejoin:miter;stroke-opacity:1"
       d="m 597.48134,393.25861 c -6.88806,-1.09764 -6.57858,4.43843 -6.16993,8.48366 1.51028,6.34957 5.68415,8.26594 10.79739,3.39347"
       id="path3550"
       inkscape:connector-curvature="0"
       sodipodi:nodetypes="ccc" />
    <path
       style="fill:none;fill-rule:evenodd;stroke:#000000;stroke-width:1px;stroke-linecap:butt;stroke-linejoin:miter;stroke-opacity:1"
       d="m 609.28135,389.94227 c -1.10969,5.28648 0.26447,10.11175 3.39347,11.8"
       id="path3552"
       inkscape:connector-curvature="0"
       sodipodi:nodetypes="cc" />
    <path
       style="fill:none;fill-rule:evenodd;stroke:#000000;stroke-width:1px;stroke-linecap:butt;stroke-linejoin:miter;stroke-opacity:1"
       d="m 620.38724,390.25076 c -0.81662,3.87972 -0.18236,6.03292 1.9281,7.9438"
       id="path3554"
       inkscape:connector-curvature="0"
       sodipodi:nodetypes="cc" />
    <path
       style="fill:none;fill-rule:evenodd;stroke:#000000;stroke-width:1px;stroke-linecap:butt;stroke-linejoin:miter;stroke-opacity:1"
       d="m 140.21183,424.72529 c -0.10283,4.31896 -2.15947,8.63791 -5.24444,9.25491 l -28.69021,1.23398"
       id="path3556"
       inkscape:connector-curvature="0"
       sodipodi:nodetypes="ccc" />
    <path
       style="fill:none;fill-rule:evenodd;stroke:#000000;stroke-width:1px;stroke-linecap:butt;stroke-linejoin:miter;stroke-opacity:1"
       d="m 118.00006,414.39064 c -0.36423,8.88212 -4.50749,16.54571 -11.26014,20.82354 -16.097026,-7.0306 -27.45232,-22.89387 -23.754258,-64.0131 2.97716,-16.06742 15.942275,-24.70699 26.530728,-1.85098"
       id="path3558"
       inkscape:connector-curvature="0"
       sodipodi:nodetypes="cccc" />
    <path
       style="fill:none;fill-rule:evenodd;stroke:#000000;stroke-width:1px;stroke-linecap:butt;stroke-linejoin:miter;stroke-opacity:1"
       d="m 95.171289,363.02591 c -15.335308,1.15148 -9.98967,65.66146 9.254911,65.86409 14.313,-0.15614 8.73211,-65.42784 -9.254911,-65.86409 z"
       id="path3560"
       inkscape:connector-curvature="0"
       sodipodi:nodetypes="ccc" />
    <path
       style="fill:none;fill-rule:evenodd;stroke:#000000;stroke-width:1px;stroke-linecap:butt;stroke-linejoin:miter;stroke-opacity:1"
       d="m 94.862792,362.87166 c -0.704482,7.14685 0.09016,14.29369 1.850982,21.44054 l -2.622224,2.15948 c -3.899523,-2.65794 -5.286131,-6.82363 -7.249677,-10.64315"
       id="path3562"
       inkscape:connector-curvature="0"
       sodipodi:nodetypes="cccc" />
    <path
       style="fill:none;fill-rule:evenodd;stroke:#000000;stroke-width:1px;stroke-linecap:butt;stroke-linejoin:miter;stroke-opacity:1"
       d="m 101.49548,366.41938 c -2.449621,4.98316 -1.699691,11.79464 -1.38824,18.35556 l 1.38824,2.46798 c 1.89044,-2.70074 3.04283,-6.01653 7.24967,-6.78693"
       id="path3564"
       inkscape:connector-curvature="0"
       sodipodi:nodetypes="cccc" />
    <path
       style="fill:none;fill-rule:evenodd;stroke:#000000;stroke-width:1px;stroke-linecap:butt;stroke-linejoin:miter;stroke-opacity:1"
       d="m 109.97914,384.77494 c -5.7346,1.83027 -3.79789,3.88325 -6.78693,5.0902 1.02058,2.46411 1.43256,4.62391 0,5.86144 3.97587,1.08566 6.82609,3.53875 8.94641,6.63269"
       id="path3566"
       inkscape:connector-curvature="0"
       sodipodi:nodetypes="cccc" />
    <path
       style="fill:none;fill-rule:evenodd;stroke:#000000;stroke-width:1px;stroke-linecap:butt;stroke-linejoin:miter;stroke-opacity:1"
       d="m 112.60136,407.44946 c -5.41022,-5.81675 -7.87335,-6.1603 -10.48889,-6.78693 0.47682,0.95169 0.48577,1.71622 -1.07974,1.85098 3.91868,9.33756 4.56364,17.65525 5.0902,25.60525"
       id="path3570"
       inkscape:connector-curvature="0"
       sodipodi:nodetypes="cccc" />
    <path
       style="fill:none;fill-rule:evenodd;stroke:#000000;stroke-width:1px;stroke-linecap:butt;stroke-linejoin:miter;stroke-opacity:1"
       d="m 99.952991,427.50176 c 0.266069,-7.12247 -0.248792,-15.14103 -2.467975,-23.90851 l -1.233988,-1.23398 c -1.765519,4.19806 -4.013939,6.46451 -6.169937,9.10065"
       id="path3574"
       inkscape:connector-curvature="0"
       sodipodi:nodetypes="cccc" />
    <path
       style="fill:none;fill-rule:evenodd;stroke:#000000;stroke-width:1px;stroke-linecap:butt;stroke-linejoin:miter;stroke-opacity:1"
       d="m 87.613116,403.28476 c 2.377221,-0.84992 4.607372,-1.99398 6.169937,-4.47321 l -0.92549,-5.70719 c -2.846462,-1.05188 -4.898594,-3.29525 -6.94118,-5.55294"
       id="path3576"
       inkscape:connector-curvature="0"
       sodipodi:nodetypes="cccc" />
    <path
       style="fill:none;fill-rule:evenodd;stroke:#000000;stroke-width:1px;stroke-linecap:butt;stroke-linejoin:miter;stroke-opacity:1"
       d="m 97.617757,390.90646 c -2.350153,-0.17944 -1.78617,4.80453 0.654421,4.74455 1.470247,0.15051 1.820842,-4.74206 -0.654421,-4.74455 z"
       id="path3578"
       inkscape:connector-curvature="0"
       sodipodi:nodetypes="ccc" />
    <path
       style="fill:none;fill-rule:evenodd;stroke:#000000;stroke-width:1px;stroke-linecap:butt;stroke-linejoin:miter;stroke-opacity:1"
       d="m 100.28998,389.65215 c 0.29282,-0.57566 1.42171,-0.007 0.76349,0.70896 -0.57069,0.36333 -1.252381,0.0194 -0.76349,-0.70896 z"
       id="path3580"
       inkscape:connector-curvature="0"
       sodipodi:nodetypes="ccc" />
    <path
       style="fill:none;fill-rule:evenodd;stroke:#000000;stroke-width:1px;stroke-linecap:butt;stroke-linejoin:miter;stroke-opacity:1"
       d="m 93.745768,389.8703 c -0.647525,0.62935 -0.07011,1.31532 0.654421,0.76349 1.004243,-0.85152 0.06073,-1.39585 -0.654421,-0.76349 z"
       id="path3582"
       inkscape:connector-curvature="0"
       sodipodi:nodetypes="ccc" />
    <path
       style="fill:none;fill-rule:evenodd;stroke:#000000;stroke-width:1px;stroke-linecap:butt;stroke-linejoin:miter;stroke-opacity:1"
       d="m 95.872636,398.37776 c 0.7063,-0.6153 1.594923,0.0513 0.76349,0.9271 -0.800478,0.668 -1.415341,-0.34482 -0.76349,-0.9271 z"
       id="path3584"
       inkscape:connector-curvature="0"
       sodipodi:nodetypes="ccc" />
    <path
       style="fill:none;fill-rule:evenodd;stroke:#000000;stroke-width:1px;stroke-linecap:butt;stroke-linejoin:miter;stroke-opacity:1"
       d="m 100.56265,397.99602 c 0.10852,-0.87728 1.67905,-0.55675 1.36338,0.65442 0.0331,0.88763 -1.34988,0.77942 -1.19977,-0.54535 z"
       id="path3586"
       inkscape:connector-curvature="0"
       sodipodi:nodetypes="cccc" />
    <path
       style="fill:none;fill-rule:evenodd;stroke:#000000;stroke-width:1px;stroke-linecap:butt;stroke-linejoin:miter;stroke-opacity:1"
       d="m 174.29405,339.69804 -13.74283,-3.05396 c -2.62417,-0.30343 -3.23083,3.62197 -0.21814,4.14466 l 11.12515,3.49025 c 2.33126,1.37953 4.92996,-3.53181 2.83582,-4.58095 z"
       id="path3588"
       inkscape:connector-curvature="0"
       sodipodi:nodetypes="ccccc" />
    <path
       style="fill:none;fill-rule:evenodd;stroke:#000000;stroke-width:1px;stroke-linecap:butt;stroke-linejoin:miter;stroke-opacity:1"
       d="m 122.2676,328.46382 -10.25259,-3.49025 c -3.22054,0.006 -4.01567,3.20499 -1.63605,4.36281 l 10.5798,3.05396 c 2.69904,-0.26449 3.44651,-2.58752 1.30884,-3.92652 z"
       id="path3590"
       inkscape:connector-curvature="0"
       sodipodi:nodetypes="ccccc" />
    <path
       style="fill:none;fill-rule:evenodd;stroke:#000000;stroke-width:1px;stroke-linecap:butt;stroke-linejoin:miter;stroke-opacity:1"
       d="m 120.52248,327.70033 c -0.037,-4.32029 -3.78884,-4.32948 -6.43513,-2.39955"
       id="path3592"
       inkscape:connector-curvature="0"
       sodipodi:nodetypes="cc" />
    <path
       style="fill:none;fill-rule:evenodd;stroke:#000000;stroke-width:1px;stroke-linecap:butt;stroke-linejoin:miter;stroke-opacity:1"
       d="m 120.19527,332.28127 c -2.44262,3.10313 -8.79054,1.09118 -8.72561,-2.61768"
       id="path3594"
       inkscape:connector-curvature="0"
       sodipodi:nodetypes="cc" />
    <path
       style="fill:none;fill-rule:evenodd;stroke:#000000;stroke-width:1px;stroke-linecap:butt;stroke-linejoin:miter;stroke-opacity:1"
       d="m 170.91288,344.16992 c -2.54827,4.2989 -9.62428,0.75495 -9.38003,-2.9449"
       id="path3596"
       inkscape:connector-curvature="0"
       sodipodi:nodetypes="cc" />
    <path
       style="fill:none;fill-rule:evenodd;stroke:#000000;stroke-width:1px;stroke-linecap:butt;stroke-linejoin:miter;stroke-opacity:1"
       d="m 172.00358,338.93455 c 0.13476,-3.01442 -7.41752,-4.58933 -9.27096,-1.85419"
       id="path3598"
       inkscape:connector-curvature="0"
       sodipodi:nodetypes="cc" />
    <path
       style="fill:none;fill-rule:evenodd;stroke:#000000;stroke-width:1px;stroke-linecap:butt;stroke-linejoin:miter;stroke-opacity:1"
       d="m 162.73262,337.40757 c 0.9137,2.02987 -0.18871,3.17459 -1.58152,3.76292"
       id="path3600"
       inkscape:connector-curvature="0"
       sodipodi:nodetypes="cc" />
    <path
       style="fill:none;fill-rule:evenodd;stroke:#000000;stroke-width:1px;stroke-linecap:butt;stroke-linejoin:miter;stroke-opacity:1"
       d="m 113.32385,325.95521 c -0.33666,1.33889 -1.08133,3.11475 -2.56315,3.59931"
       id="path3602"
       inkscape:connector-curvature="0"
       sodipodi:nodetypes="cc" />
  </g>
</svg>
